<?xml version="1.0" standalone="no"?>
<!DOCTYPE svg PUBLIC "-//W3C//DTD SVG 20010904//EN"
 "http://www.w3.org/TR/2001/REC-SVG-20010904/DTD/svg10.dtd">
<svg version="1.0" xmlns="http://www.w3.org/2000/svg"
 width="700.000000pt" height="700.000000pt" viewBox="0 0 700.000000 700.000000"
 preserveAspectRatio="xMidYMid meet">
<metadata>
Created by potrace 1.14, written by Peter Selinger 2001-2017
</metadata>
<g transform="translate(0.000000,700.000000) scale(0.100000,-0.100000)"
fill="#000000" stroke="none">
<path d="M4237 5652 c-23 -3 -38 -18 -77 -78 -61 -94 -87 -167 -70 -198 14
-25 104 -99 143 -117 26 -12 30 -10 70 27 83 78 84 79 97 54 10 -18 8 -25 -7
-42 -21 -24 -67 -48 -97 -53 -38 -6 -110 -15 -161 -20 -27 -3 -61 -7 -75 -10
-14 -2 -56 -7 -95 -11 -118 -11 -159 -40 -184 -129 -25 -92 -34 -81 237 -283
l247 -184 25 29 c14 16 34 42 46 58 l21 29 0 -36 c0 -114 73 -233 193 -314 83
-55 127 -69 222 -69 73 0 87 -2 83 -15 -3 -8 -9 -36 -13 -62 l-9 -47 96 -73
c53 -40 101 -76 106 -81 6 -4 75 -57 155 -117 128 -96 147 -107 161 -94 20 18
31 18 55 -3 14 -13 199 -153 222 -168 2 -2 -30 -50 -95 -143 -13 -19 -14 -27
-4 -45 24 -44 83 -97 138 -123 56 -27 56 -27 72 -7 9 11 38 48 64 82 30 38 53
59 60 54 7 -3 26 -17 44 -31 18 -13 37 -21 44 -17 8 5 9 1 5 -13 -16 -49 60
-139 165 -196 l51 -28 41 38 c84 80 143 166 139 204 -1 8 55 87 125 175 179
225 355 446 376 471 17 22 16 23 -35 79 -46 50 -174 146 -195 145 -4 -1 -64
-82 -133 -182 -69 -100 -163 -238 -210 -306 -47 -68 -89 -131 -95 -140 -5 -9
-15 -22 -22 -29 -6 -7 -13 -18 -15 -25 -4 -11 -47 17 -112 73 -5 4 9 29 30 56
22 26 42 52 47 58 4 5 70 89 147 185 77 96 139 177 140 180 0 3 -25 23 -55 44
l-54 40 35 48 c20 26 33 48 30 48 -4 0 -33 -11 -65 -24 l-59 -24 -49 35 -50
34 -293 -120 c-291 -120 -294 -121 -314 -102 -19 19 -18 20 45 48 109 50 199
156 212 247 11 87 -30 203 -99 276 -88 94 -225 148 -346 136 -32 -3 -58 -2
-59 2 0 4 -3 27 -5 51 -14 144 -176 306 -343 342 -57 12 -135 6 -185 -15 l-34
-14 -4 76 c-6 126 -71 233 -184 305 -68 42 -200 70 -287 59z m686 -704 c33
-17 52 -49 48 -83 -5 -54 -81 -169 -164 -247 -32 -30 -45 -36 -66 -31 -36 8
-79 40 -86 63 -12 39 61 165 150 256 55 55 78 64 118 42z m295 -437 c26 -21
62 -46 80 -55 l32 -17 45 42 c66 62 81 71 93 56 6 -6 10 -16 10 -22 1 -28 -73
-75 -126 -81 -15 -2 -54 -6 -87 -9 -33 -4 -89 -11 -125 -16 -116 -16 -115 -16
-44 57 35 37 64 71 64 75 0 15 10 10 58 -30z m590 -616 c-13 -28 -19 -30 -36
-13 -10 10 -7 15 10 25 34 18 39 16 26 -12z"/>
<path d="M2575 5516 l-49 -11 -2 -90 c-2 -101 -14 -598 -19 -805 -4 -162 -18
-774 -18 -813 l-1 -27 -400 2 c-343 2 -576 -4 -644 -16 -9 -2 -48 -7 -87 -10
-38 -4 -81 -9 -95 -11 -14 -2 -45 -6 -70 -10 -25 -3 -102 -15 -172 -27 l-128
-21 -1 -36 c-1 -20 -3 -49 -5 -66 -17 -125 -8 -356 16 -378 3 -3 140 -8 305
-12 165 -4 352 -8 415 -10 540 -14 668 -18 755 -19 l100 -1 0 -555 c0 -489 5
-681 20 -770 2 -14 7 -52 10 -85 3 -33 17 -130 31 -215 14 -85 26 -163 27
-172 1 -13 11 -18 32 -20 16 0 44 -3 60 -4 65 -8 323 -8 368 0 l47 7 1 157 c1
86 3 213 4 282 2 69 6 298 10 510 4 212 8 455 10 540 2 85 4 191 4 235 l1 80
62 -2 c341 -10 878 -4 1023 11 17 2 62 6 100 10 39 4 81 9 95 11 14 2 45 7 70
10 25 3 52 8 60 10 8 2 37 6 63 9 27 3 52 8 55 10 4 2 31 7 61 10 30 3 56 7
57 9 15 15 22 384 9 455 l-6 32 -77 1 c-42 0 -156 2 -252 4 -302 7 -694 15
-1000 21 -162 3 -297 8 -299 10 -2 2 -3 66 -1 141 8 474 2 916 -15 1073 -9 77
-36 292 -40 310 -2 9 -6 41 -10 71 -4 30 -8 56 -10 59 -2 3 -6 26 -10 50 -4
25 -7 46 -8 47 -1 0 -31 4 -67 8 -117 12 -334 13 -385 1z"/>
</g>
</svg>
